<svg width="308" height="155" viewBox="0 0 308 155" xmlns="http://www.w3.org/2000/svg"><g fill="none" fill-rule="evenodd"><path d="M0 153h12v-18h12v-2H14v-8h44v8H48v2h12v18h4v-40h6v-6h20v6h6v16h34.127c1.913-5.532 6.06-11 10.873-11 2.613 0 5.03 1.616 7 3.976V53h-4v-8h23v-2h4v2h23v8h-4v92h4v-2h2v2h4v-2h2v2h4v-2h2v2h4v-15h-4l2-8h64l2 8h-4v15h4v-2h2v2h4v-14c0-2.76 2.24-5 5-5s5 2.24 5 5h-2c0-1.657-1.343-3-3-3s-3 1.343-3 3v14h4v-2h2v2h4v-2h2v2h4c.105.01 0-2 0-2h2v2h1v2h-1v6h6v2H0v-2zm34 0h4v-10h-4v10zm22-22v-4H16v4h40zm-30 2v2h20v-2H26zm32 4H14v16h18v-12h8v12h18v-16zm14 16h4v-10h-4v10zm16-44H72v4h16v-4zm6 20v-14H66v38h4v-12h8v12h16v-24zm76 24h3v-10h-3v10zm-5 0h3v-10h-3v10zm-15 0h13v-12h12v12h13V53h-38v71.873c1.866 3.255 3 7.085 3 10.127 0 3.038-1.138 5.805-3 7.92V153zm-27 0h3v-10h-3v10zm-5 0h3v-10h-3v10zm-22-22v4h33c0-1.234.187-2.598.533-4H96zm33.18 6H96v16h20v-12h12v12h12v-6h2v6h6v-8.267c-1.972 1.42-4.384 2.267-7 2.267-5.944 0-10.866-4.327-11.82-10zM141 120c-5.523 0-10 9.477-10 15 0 5.185 3.947 9.448 9 9.95V139h2v5.95c5.053-.502 9-4.765 9-9.95 0-5.523-4.477-15-10-15zm51-69v-4h-46v4h46zm2 96h-4v6h4v-6zm6 0h-4v6h4v-6zm6 0h-4v6h4v-6zm38 6h26v-23h-26v23zm-15 0h3v-10h-3v10zm-5 0h3v-10h-3v10zm-10 0h8v-12h12v12h8v-23h-28v23zm-6-6v6h4v-6h-4zm65-19l-1-4h-60l-1 4h62zm3 19h-4v6h4v-6zm6 0h-4v6h4v-6zm6 0h-4v6h4v-6zm6 0h-4v6h4v-6zm6 0h-4v6h4v-6zm-78-15h12v6h-12v-6zm2 4h8v-2h-8v2zm36.682 4.11l1.414-1.413.707.707-1.414 1.414-.708-.707zm-6.657 1.658l7.07-7.07.708.706-7.07 7.07-.708-.706zm-2.828 2.828l1.414-1.414.708.707-1.414 1.413-.707-.707zm8.778-2.364l-7.07 7.07-.708-.706 7.07-7.07.708.706zM100 141h12v8h-12v-8zm2 6h8v-4h-8v4zm82-80h-30V57h30v10zm-21-8h-7v6h7v-6zm10 0h-8v6h8v-6zm9 0h-7v6h7v-6zm2 22h-30V71h30v10zm-21-8h-7v6h7v-6zm10 0h-8v6h8v-6zm9 0h-7v6h7v-6zm2 22h-30V85h30v10zm-21-8h-7v6h7v-6zm10 0h-8v6h8v-6zm9 0h-7v6h7v-6zm2 22h-30V99h30v10zm-21-8h-7v6h7v-6zm10 0h-8v6h8v-6zm9 0h-7v6h7v-6zm2 22h-30v-10h30v10zm-21-8h-7v6h7v-6zm10 0h-8v6h8v-6zm9 0h-7v6h7v-6zm2 22h-30v-10h30v10zm-21-8h-7v6h7v-6zm10 0h-8v6h8v-6zm9 0h-7v6h7v-6zm-92-3h-8v-8h8v8zm-2-6h-4v4h4v-4zm2 18h-8v-8h8v8zm-2-6h-4v4h4v-4zm2 17h-8v-8h8v8zm-2-6h-4v4h4v-4zm-18-13h8v8h-8v-8zm2 6h4v-4h-4v4zm-2-18h8v8h-8v-8zm2 6h4v-4h-4v4zm-18 25h-8v-8h8v8zm-2-6h-4v4h4v-4zm-34-2h8v8h-8v-8zm2 6h4v-4h-4v4zm273-13c0 1.657-.343 1-2 1s-2 .657-2-1 .343-3 2-3 2 1.343 2 3zm-2-1c-.552 0-1 .448-1 1s.448 0 1 0 1 .552 1 0-.448-1-1-1zm-31-61h-1l-1-2h-3v-2l4 1-.1 1h1.1v-1l4-1v2h-3l-1 2zm-17 8h-1l-1-2h-3v-2l4 1-.1 1h1.1v-1l4-1v2h-3l-1 2zm-6-16h-1l-1-2h-3v-2l4 1-.1 1h1.1v-1l4-1v2h-3l-1 2zm-35-50h-13c-2.21 0-4-1.79-4-4s1.79-4 4-4c.378 0 .737.07 1.084.168C190.482 3.805 192.524 2 195 2c.63 0 1.23.13 1.784.343C198.066.908 199.924 0 202 0c3.866 0 7 3.134 7 7s-3.134 7-7 7zm0-12c-1.63 0-3.068.79-3.98 2H195c-1.657 0-3 1.343-3 3l-3 1c-1.105 0-2 .895-2 2s.895 2 2 2h13c2.76 0 5-2.24 5-5s-2.24-5-5-5zm-91 90h-1l-1-2h-3v-2l4 1-.1 1h1.1v-1l4-1v2h-3l-1 2zm-12-9h-1l-1-2h-3v-2l4 1-.1 1H99v-1l4-1v2h-3l-1 2zM56 70H43c-2.21 0-4-1.79-4-4s1.79-4 4-4c.378 0 .737.07 1.084.168C44.482 59.805 46.524 58 49 58c.63 0 1.23.13 1.784.343C52.066 56.908 53.924 56 56 56c3.866 0 7 3.134 7 7s-3.134 7-7 7zm0-12c-1.63 0-3.068.79-3.98 2H49c-1.657 0-3 1.343-3 3l-3 1c-1.105 0-2 .895-2 2s.895 2 2 2h13c2.76 0 5-2.24 5-5s-2.24-5-5-5z" fill="#ddd"/></g></svg>